<svg width="56" height="22" viewBox="0 0 56 22" xmlns="http://www.w3.org/2000/svg"><title>Combined Shape</title><path d="M38.65 8.324l6.92-6.614c2.386-2.28 6.255-2.28 8.64 0 2.387 2.28 2.386 5.978 0 8.258L43.411 20.29c-1.305 1.247-3.054 1.812-4.76 1.695-1.708.117-3.457-.448-4.762-1.695L23.09 9.968c-2.386-2.28-2.386-5.977 0-8.258 2.386-2.28 6.255-2.28 8.64 0l6.92 6.614zM1.79 9.968c-2.386-2.28-2.387-5.977 0-8.258 2.385-2.28 6.254-2.28 8.64 0l10.799 10.322c2.386 2.28 2.386 5.977 0 8.258-2.386 2.28-6.255 2.28-8.64 0L1.789 9.968z" fill="#FFF" fill-rule="evenodd"/></svg>